<?xml version="1.0" standalone="no"?>
<!DOCTYPE svg PUBLIC "-//W3C//DTD SVG 20010904//EN"
 "http://www.w3.org/TR/2001/REC-SVG-20010904/DTD/svg10.dtd">
<svg version="1.0" xmlns="http://www.w3.org/2000/svg"
 width="1024.000000pt" height="1024.000000pt" viewBox="0 0 1024.000000 1024.000000"
 preserveAspectRatio="xMidYMid meet">

<g transform="translate(0.000000,1024.000000) scale(0.100000,-0.100000)"
fill="#000000" stroke="none">
<path d="M5188 8075 c-6 -7 -3 -310 7 -660 6 -213 8 -232 21 -340 5 -38 8
-110 8 -160 0 -84 -2 -90 -22 -93 -25 -4 -102 -81 -119 -120 -18 -40 -15 -113
5 -137 48 -57 104 -77 222 -79 70 -1 154 24 164 49 3 8 14 15 24 15 21 0 57
37 67 71 25 76 -9 147 -89 188 -66 35 -79 52 -66 87 8 19 9 74 6 159 -8 175
-15 387 -21 635 -5 220 -20 371 -37 381 -13 8 -162 12 -170 4z"/>
<path d="M5734 7931 c-96 -23 -154 -86 -154 -167 0 -47 10 -58 88 -100 69 -36
89 -62 97 -127 15 -119 79 -492 115 -677 22 -109 44 -247 50 -307 l11 -108
-25 -21 c-13 -12 -22 -25 -19 -28 11 -10 -18 -35 -50 -42 -17 -3 -37 -13 -46
-21 -8 -8 -24 -13 -37 -10 -14 2 -25 -2 -28 -10 -3 -8 -10 -11 -16 -8 -5 3
-10 1 -10 -4 0 -6 -3 -10 -7 -9 -14 5 -73 -24 -73 -35 0 -6 -3 -8 -6 -4 -6 6
-287 -161 -292 -175 -2 -4 -9 -8 -16 -8 -7 0 -38 -18 -69 -40 -30 -22 -62 -40
-69 -40 -8 0 -25 -11 -38 -25 l-24 -25 13 -358 c25 -747 33 -914 46 -945 4
-10 5 -20 2 -23 -3 -3 -38 2 -77 12 -64 15 -82 16 -169 4 -178 -24 -158 -27
-164 27 -3 27 -6 265 -7 530 -1 495 -2 546 -19 718 -6 55 -13 127 -16 160 -3
33 -7 80 -10 105 -2 25 -7 92 -10 150 -11 221 -9 217 -80 285 -35 33 -80 69
-101 80 -22 11 -48 28 -59 38 -10 10 -25 15 -32 13 -6 -3 -13 -1 -15 4 -7 20
-52 15 -63 -6 -6 -12 -17 -29 -24 -37 -26 -32 2 -85 92 -171 46 -45 91 -92
100 -106 14 -22 14 -55 7 -275 -5 -137 -14 -401 -20 -585 -14 -448 -48 -1138
-61 -1224 -26 -177 39 -276 245 -376 132 -64 208 -83 316 -78 82 3 92 6 201
61 176 89 193 101 235 172 41 71 48 129 30 278 -17 142 -31 350 -46 707 -6
124 -15 243 -20 265 -6 22 -9 54 -8 70 1 17 -2 98 -6 181 -5 83 -5 165 -1 182
5 25 24 43 103 95 53 35 124 80 157 99 33 19 111 67 173 106 62 40 117 72 122
72 6 0 10 4 10 9 0 4 32 29 70 55 39 25 89 63 112 84 l41 37 -7 85 c-8 103
-11 127 -25 188 -9 42 -34 194 -77 477 -19 120 -40 229 -69 350 -13 55 -25
122 -26 149 -3 46 0 51 36 81 36 31 38 35 31 74 -7 45 -12 53 -66 111 -54 57
-155 82 -246 61z"/>
<path d="M4040 7905 c-19 -9 -46 -27 -60 -39 -14 -13 -38 -27 -54 -30 -60 -14
-73 -71 -31 -132 14 -20 25 -33 25 -29 0 4 6 3 13 -3 6 -5 54 -13 104 -17 88
-7 95 -6 136 18 58 34 86 92 68 139 -14 36 -93 98 -133 104 -18 2 -48 -3 -68
-11z"/>
<path d="M6654 7640 c-68 -31 -121 -126 -105 -186 14 -48 66 -90 147 -118 6
-2 19 -33 28 -68 15 -54 243 -752 261 -799 4 -12 -5 -20 -40 -33 -80 -31 -127
-123 -91 -178 23 -35 13 -52 -58 -97 -33 -22 -72 -49 -86 -60 -14 -10 -41 -26
-60 -35 -28 -13 -124 -74 -175 -113 -6 -4 -23 -15 -37 -23 -113 -65 -382 -227
-470 -283 -31 -20 -76 -44 -100 -53 -25 -10 -64 -38 -92 -68 l-49 -51 12 -95
c6 -52 40 -351 76 -665 36 -313 72 -628 81 -700 8 -71 13 -152 10 -180 -4 -44
-11 -55 -53 -93 -26 -24 -75 -69 -108 -100 -33 -32 -71 -65 -85 -74 -14 -8
-61 -46 -105 -84 -44 -38 -91 -79 -105 -91 -112 -94 -178 -151 -212 -184 l-41
-39 7 -217 c4 -120 9 -219 11 -222 3 -2 49 17 102 44 54 26 108 52 121 58 22
11 23 14 18 109 -3 59 -1 111 6 130 14 43 67 91 115 106 23 7 72 43 128 93 50
45 153 139 230 209 77 70 162 147 188 171 26 23 53 51 58 61 12 22 -8 233 -51
538 -16 113 -32 241 -35 285 -4 44 -9 89 -11 99 -2 11 -10 96 -19 190 -20 227
-25 264 -44 376 -25 145 -11 191 70 227 22 9 39 20 39 25 0 4 7 8 16 8 8 0 12
5 9 10 -3 6 0 10 8 10 7 0 22 8 33 18 10 10 60 44 109 75 356 228 448 289 685
459 43 31 48 32 155 34 106 1 112 2 157 33 62 42 86 73 93 124 11 76 -26 133
-126 194 -59 37 -65 44 -87 104 -47 126 -89 245 -95 269 -3 14 -11 43 -17 65
-6 22 -12 45 -13 52 -2 7 -6 16 -10 19 -4 4 -7 15 -7 23 0 21 -52 159 -90 236
-35 73 -45 99 -56 147 -5 23 -1 30 35 52 59 38 76 67 62 109 -35 105 -237 193
-337 147z m-674 -3904 c0 -3 -4 -8 -10 -11 -5 -3 -10 -1 -10 4 0 6 5 11 10 11
6 0 10 -2 10 -4z"/>
<path d="M3889 7588 c-6 -24 -29 -119 -50 -213 -21 -93 -61 -267 -89 -385 -28
-118 -64 -277 -80 -353 -16 -76 -36 -161 -45 -189 -40 -135 -17 -174 210 -354
55 -43 106 -84 114 -90 20 -16 17 -77 -24 -404 -34 -274 -64 -552 -85 -790
-13 -150 -58 -491 -70 -540 -5 -20 -21 -125 -34 -235 -41 -332 -40 -320 -19
-355 10 -18 152 -153 316 -301 288 -260 299 -268 320 -254 20 13 26 13 46 -1
22 -16 22 -19 18 -163 -2 -80 -8 -158 -12 -173 -6 -24 -4 -28 14 -28 22 0 30
-19 9 -21 -73 -5 -125 -12 -188 -25 -41 -9 -82 -16 -90 -16 -88 5 -102 14
-295 189 -116 105 -223 201 -254 228 -19 17 -56 51 -82 78 -26 26 -51 47 -54
47 -4 0 -30 22 -58 49 -29 27 -64 60 -78 73 -14 14 -34 37 -44 52 -12 18 -24
26 -37 23 -10 -3 -16 -1 -13 3 9 15 -85 98 -110 98 -12 0 -49 16 -81 36 -33
21 -68 43 -78 49 -11 7 -26 19 -35 27 -9 8 -29 24 -44 35 -31 23 -29 60 3 50
9 -3 22 1 28 8 6 7 32 14 57 16 50 2 95 27 330 179 142 92 155 104 155 141 0
14 7 39 15 55 8 15 15 37 15 48 0 27 28 78 43 78 16 0 57 61 63 96 3 15 7 31
10 36 3 4 1 8 -4 8 -5 0 -8 13 -6 28 2 20 -6 38 -31 65 -19 21 -35 42 -35 47
0 5 -21 22 -47 37 -27 15 -57 35 -67 45 -11 10 -23 18 -28 18 -15 0 -8 16 24
50 17 19 33 49 35 65 2 17 8 32 13 33 6 2 8 8 4 13 -3 5 0 9 5 9 6 0 11 16 11
35 0 21 -5 35 -12 35 -10 0 -10 3 0 9 8 5 16 32 18 62 10 114 11 127 17 136 4
6 6 26 6 44 -1 19 6 68 14 109 22 108 41 330 33 374 -5 28 -16 42 -42 58 -26
15 -32 23 -22 29 9 6 -3 15 -37 29 -28 11 -68 29 -90 40 -51 25 -137 51 -129
39 3 -5 -10 -3 -28 5 -71 30 -274 60 -478 71 -63 3 -160 13 -214 21 -140 20
-150 19 -179 -16 -47 -56 -19 -88 103 -115 41 -9 102 -23 135 -31 33 -8 105
-21 160 -30 179 -28 200 -32 235 -43 19 -5 69 -19 110 -31 219 -60 244 -70
259 -108 12 -28 11 -35 -68 -457 -40 -215 -53 -318 -49 -383 3 -53 2 -55 -32
-73 -19 -10 -39 -22 -45 -26 -5 -5 -24 -19 -42 -31 -44 -31 -113 -154 -113
-200 0 -41 23 -97 63 -156 34 -49 34 -62 -3 -93 -48 -40 -102 -75 -95 -61 4 7
1 6 -7 -2 -7 -8 -20 -16 -28 -18 -8 -2 -20 -10 -26 -18 -6 -7 -17 -14 -25 -14
-8 0 -25 -10 -39 -21 -14 -11 -18 -18 -10 -14 9 4 7 0 -3 -9 -11 -8 -26 -12
-34 -9 -9 4 -16 -2 -20 -16 -3 -11 -12 -21 -19 -21 -26 0 -29 -1 -37 -16 -4
-8 -15 -14 -22 -14 -8 0 -15 -4 -15 -9 0 -5 -7 -12 -16 -15 -8 -3 -12 -2 -9 4
10 16 -67 -30 -97 -59 -16 -13 -28 -22 -28 -19 0 3 -19 -12 -41 -33 -23 -21
-50 -41 -60 -44 -11 -4 -19 -11 -19 -16 0 -6 -13 -15 -30 -20 -16 -6 -30 -15
-30 -20 0 -5 -7 -9 -15 -9 -8 0 -15 -7 -15 -15 0 -9 -9 -15 -25 -15 -14 0 -28
-7 -31 -15 -4 -8 -14 -15 -23 -15 -14 0 -14 -2 -1 -10 13 -8 12 -10 -3 -10
-10 0 -15 -4 -12 -10 3 -5 2 -10 -4 -10 -5 0 -13 -9 -16 -20 -4 -11 -10 -18
-14 -16 -4 3 -8 -5 -8 -17 -2 -18 0 -19 8 -7 8 12 10 9 6 -12 -3 -21 0 -28 12
-29 10 0 11 -2 4 -6 -10 -3 -10 -10 -2 -25 13 -24 5 -50 -15 -42 -8 3 -17 1
-21 -5 -4 -8 -13 -7 -28 1 -12 7 -26 14 -32 14 -5 1 -19 3 -30 4 -15 2 -12 4
10 10 28 7 29 8 4 9 -14 0 -30 6 -36 12 -9 9 -10 6 -6 -11 4 -13 2 -21 -3 -17
-19 12 -47 -23 -54 -69 -7 -44 -6 -47 35 -87 23 -23 52 -62 65 -87 12 -25 29
-53 37 -62 14 -16 17 -16 49 8 27 21 34 34 39 79 5 35 2 66 -6 90 -12 31 -11
40 2 63 12 22 25 29 69 35 34 6 69 19 90 35 88 67 177 122 197 122 12 0 44 13
72 29 l49 30 199 -197 c110 -108 371 -365 580 -570 l381 -372 -5 -74 c-9 -121
36 -225 141 -324 95 -90 206 -129 335 -117 91 8 122 15 116 25 -2 4 15 16 38
26 53 24 157 102 199 150 52 58 77 103 104 192 24 77 25 89 14 150 -14 84 -97
232 -150 269 -20 14 -29 40 -10 28 12 -7 12 -5 15 155 1 69 3 127 4 130 1 3 4
46 6 97 4 92 3 92 -28 125 -18 18 -52 49 -77 68 -25 19 -63 51 -85 71 -22 20
-67 58 -100 84 -33 27 -79 67 -101 89 -23 23 -89 82 -147 131 -124 105 -136
129 -152 290 -2 22 -4 40 -5 40 -7 0 -3 108 4 112 4 3 3 9 -4 13 -7 4 -13 35
-15 73 -1 36 -5 69 -8 74 -3 5 -2 15 3 23 8 13 5 58 -7 90 -9 23 -9 83 0 103
5 11 4 17 -4 17 -8 0 -7 5 2 17 12 14 12 15 0 9 -10 -7 -12 -3 -6 13 4 14 2
21 -7 21 -11 0 -11 2 0 9 7 4 12 12 11 17 -4 14 32 124 40 124 4 0 8 8 9 18 3
31 8 47 20 68 6 12 8 24 5 28 -3 3 -1 6 5 6 7 0 12 7 12 15 0 8 4 15 9 15 12
0 25 62 27 130 1 30 7 98 13 150 13 109 21 189 26 242 2 21 6 42 9 47 3 5 9
38 12 72 3 35 9 70 14 79 18 35 40 216 44 364 l3 158 -45 32 c-25 17 -77 57
-116 90 -39 32 -85 64 -101 72 -52 21 -68 48 -67 107 2 61 8 133 17 191 4 22
9 53 11 68 2 15 8 37 13 50 5 13 12 52 16 88 4 36 11 70 16 76 6 7 9 16 8 20
-4 16 12 108 27 154 8 25 16 63 18 85 10 94 19 151 28 169 14 25 27 126 17
126 -5 0 -7 16 -5 35 3 38 -12 59 -37 50 -9 -4 -21 2 -29 14 -8 12 -18 18 -21
14 -4 -3 -7 6 -7 20 0 41 -18 32 -31 -15z m-649 -3289 c0 -14 -7 -11 -35 13
-14 12 -25 31 -25 42 0 18 4 16 30 -12 17 -18 30 -37 30 -43z m-391 -575 c14
-12 -39 -1 -55 11 -17 13 -16 14 16 3 19 -6 37 -13 39 -14z m1493 -1262 c7 -9
25 -25 41 -35 15 -10 34 -32 42 -50 l14 -32 -5 30 c-3 24 -3 26 5 10 5 -11 10
-30 10 -43 1 -28 -44 -76 -64 -68 -8 3 -15 1 -15 -4 0 -5 -13 -7 -30 -3 -18 3
-30 1 -30 -5 0 -7 -19 -9 -52 -5 -61 6 -88 18 -88 38 0 17 66 142 88 168 20
22 67 22 84 -1z"/>
<path d="M7503 7390 c-45 -20 -83 -69 -83 -108 0 -65 84 -146 170 -164 l57
-11 56 -111 c61 -120 108 -207 165 -301 44 -74 315 -457 357 -505 41 -47 184
-230 264 -338 35 -49 69 -86 77 -84 8 2 14 -5 14 -18 0 -11 48 -99 106 -195
l106 -175 -15 -57 c-8 -32 -12 -66 -9 -75 5 -19 175 -153 229 -182 49 -25 109
-21 139 9 35 35 54 86 54 142 0 48 0 48 -100 144 -80 77 -106 109 -133 165
-57 120 -245 392 -396 574 -80 96 -159 194 -176 217 -16 23 -68 90 -114 150
-142 181 -166 214 -243 329 -91 135 -169 284 -169 321 1 16 3 49 7 74 11 86
-42 142 -184 193 -87 31 -122 32 -179 6z"/>
<path d="M7155 7380 c-9 -10 -20 -39 -22 -63 -5 -37 2 -57 50 -153 31 -61 92
-173 138 -250 240 -407 820 -1548 1063 -2090 40 -91 43 -106 21 -124 -22 -18
-19 -30 17 -67 18 -18 46 -59 62 -91 25 -46 36 -58 59 -60 16 -2 34 -14 43
-28 9 -13 20 -22 24 -19 5 3 11 1 15 -5 3 -5 1 -10 -6 -10 -20 0 33 -51 69
-67 45 -19 76 -3 124 66 47 67 51 116 13 157 -21 22 -25 36 -24 82 2 49 -2 59
-25 79 -15 13 -37 23 -49 23 -31 0 -64 25 -71 55 -10 38 -177 396 -279 595
-101 197 -279 523 -371 678 -34 57 -70 120 -81 140 -59 113 -151 275 -185 327
-84 130 -178 304 -205 378 -25 70 -34 83 -81 119 -68 51 -181 181 -206 237
-14 30 -18 53 -13 77 6 33 5 34 -28 34 -21 0 -41 -7 -52 -20z"/>
<path d="M2390 7349 c-30 -4 -58 -5 -62 -3 -4 3 -30 -3 -57 -12 -64 -21 -76
-48 -35 -81 58 -46 165 -14 196 59 10 23 17 42 15 43 -1 0 -27 -2 -57 -6z"/>
<path d="M2947 6557 c-8 -7 -20 -30 -26 -52 -11 -43 -48 -78 -121 -116 -55
-29 -73 -70 -73 -173 -1 -70 2 -81 22 -97 28 -23 93 -33 189 -27 88 5 136 28
222 105 59 53 77 101 60 162 -19 70 -121 138 -176 117 -27 -10 -64 20 -64 54
0 34 -11 44 -33 27z"/>
<path d="M7455 5899 c-136 -87 -167 -126 -158 -196 8 -60 37 -89 113 -110 l65
-18 32 -65 c38 -78 172 -391 202 -475 12 -33 40 -100 61 -150 21 -49 77 -187
124 -305 l85 -215 -28 -30 c-66 -70 -80 -160 -37 -250 26 -56 127 -157 196
-197 94 -55 205 -58 317 -8 35 15 48 28 63 64 43 96 33 191 -26 247 -14 13
-34 43 -44 67 -14 32 -29 47 -59 61 -23 10 -54 36 -71 60 -17 23 -39 50 -48
59 -10 10 -35 60 -55 110 -20 50 -86 205 -146 344 -60 139 -146 343 -191 453
-123 297 -228 547 -243 575 -22 43 -61 38 -152 -21z m747 -1451 c-2 -11 -8
-16 -13 -11 -5 5 -6 19 -2 32 4 15 8 19 13 11 4 -7 5 -21 2 -32z"/>
<path d="M2480 5409 c0 -5 -5 -9 -11 -9 -10 0 -50 -41 -117 -121 -17 -19 -34
-48 -38 -65 -4 -16 -11 -35 -17 -42 -7 -9 -6 -11 7 -6 9 3 16 1 16 -4 0 -6 10
-14 22 -18 26 -8 48 -28 48 -44 0 -6 5 -8 10 -5 6 3 10 2 10 -3 0 -5 11 -12
24 -14 19 -4 22 -1 18 16 -5 21 -5 21 16 3 20 -18 20 -18 15 1 -2 11 1 23 8
27 8 5 10 4 5 -3 -9 -16 7 -15 22 0 16 16 28 2 12 -17 -10 -12 -8 -16 11 -24
13 -5 18 -10 11 -10 -8 -1 -10 -6 -6 -13 5 -7 7 -27 5 -45 -3 -41 21 -54 50
-27 42 38 100 113 104 136 3 13 11 28 19 33 8 7 13 27 11 58 -1 26 2 47 8 47
5 0 7 7 3 15 -3 8 -2 15 2 15 4 0 9 14 10 31 3 33 -21 69 -45 69 -7 0 -13 4
-13 8 0 12 -10 13 -122 17 -56 2 -98 0 -98 -6z"/>
<path d="M6955 5251 c-52 -24 -79 -54 -104 -119 -26 -66 -26 -92 -2 -141 26
-49 77 -94 154 -132 127 -64 111 -34 238 -459 45 -151 101 -339 125 -418 l42
-143 -54 -104 c-46 -89 -54 -113 -54 -159 0 -47 4 -59 35 -96 19 -23 38 -53
41 -66 3 -13 15 -26 26 -30 11 -3 55 -39 97 -78 79 -75 230 -186 253 -186 23
1 61 37 64 61 1 13 3 27 3 30 1 3 20 16 44 29 51 29 74 55 83 95 3 17 10 35
14 40 12 15 6 193 -9 245 -15 53 -77 115 -191 192 -71 47 -76 53 -92 107 -9
31 -42 128 -73 216 -31 88 -81 237 -111 330 -31 94 -58 177 -61 185 -4 8 -8
29 -10 45 -2 17 -11 55 -18 85 -14 55 -14 55 14 95 43 62 50 91 34 158 -24
106 -98 182 -216 221 -69 23 -220 21 -272 -3z m868 -1832 c2 -58 -33 -87 -66
-54 -8 8 -18 11 -22 7 -11 -11 6 51 21 75 8 12 14 31 14 42 0 11 6 21 13 24
15 5 38 -47 40 -94z m-66 49 c-3 -8 -6 -5 -6 6 -1 11 2 17 5 13 3 -3 4 -12 1
-19z"/>
<path d="M6431 4664 c-88 -27 -140 -80 -167 -171 -35 -117 37 -257 174 -335
29 -17 57 -39 62 -49 11 -20 50 -216 96 -477 23 -136 26 -167 15 -184 -10 -16
-10 -19 1 -12 15 10 -55 -79 -94 -117 -15 -15 -28 -25 -30 -23 -3 2 -51 -41
-108 -96 -57 -55 -100 -100 -95 -100 4 0 -15 -17 -44 -37 -28 -21 -51 -44 -51
-51 0 -7 -4 -11 -9 -8 -5 3 -22 -11 -37 -32 -24 -31 -104 -112 -234 -237 -27
-25 -70 -31 -125 -14 -54 15 -134 20 -155 9 -11 -6 -26 -8 -32 -4 -7 5 -28 9
-46 11 -19 2 -41 10 -48 18 -23 23 -79 29 -112 12 -17 -8 -42 -13 -57 -12 -23
3 -26 0 -22 -16 4 -15 2 -18 -7 -10 -8 7 -15 4 -24 -10 -7 -10 -18 -19 -25
-19 -17 0 -39 -38 -31 -52 4 -6 3 -8 -3 -5 -5 4 -16 -5 -23 -18 -10 -19 -17
-22 -30 -15 -15 8 -20 1 -33 -48 -55 -200 -16 -344 129 -482 100 -95 209 -148
320 -157 89 -6 197 3 189 17 -3 5 7 16 23 24 17 9 48 33 70 54 23 22 43 38 46
35 2 -2 7 9 11 26 3 17 10 29 15 28 4 -1 8 1 9 6 1 4 9 16 19 26 55 60 63 71
58 80 -4 5 -2 11 3 13 15 5 28 108 19 158 -12 75 -19 104 -27 115 -21 26 -28
71 -15 89 12 17 34 15 34 -4 0 -5 8 -23 19 -40 l18 -31 43 38 c24 21 89 85
144 142 56 57 162 165 236 241 74 75 142 146 150 158 8 12 19 22 25 22 5 0 58
49 118 109 77 78 107 116 107 133 0 14 3 28 8 32 11 12 10 76 -1 69 -6 -4 -8
0 -4 10 6 15 -3 22 -25 18 -9 -1 -5 35 4 45 11 10 -3 34 -16 27 -7 -4 -7 -1 1
9 7 8 10 18 7 21 -3 3 -8 23 -10 44 -4 40 -20 118 -34 168 -12 42 -18 77 -30
175 -17 142 -16 145 39 198 68 66 85 103 86 183 0 56 -4 72 -27 105 -48 67
-91 108 -153 143 -122 69 -217 86 -314 55z m459 -1194 c0 -5 -2 -10 -4 -10 -3
0 -8 5 -11 10 -3 6 -1 10 4 10 6 0 11 -4 11 -10z m-1600 -862 c11 -26 32 -61
41 -68 3 -3 11 -15 18 -27 6 -13 18 -23 25 -23 8 0 19 -6 25 -14 15 -18 66
-30 113 -27 72 5 122 -56 116 -140 -2 -34 -8 -46 -27 -55 -23 -12 -22 -13 22
-19 27 -4 60 -3 78 4 39 13 39 13 39 1 0 -5 -7 -10 -15 -10 -8 0 -15 -6 -15
-12 0 -19 -46 -37 -80 -33 -67 9 -221 110 -228 150 -2 11 -15 39 -28 62 -13
24 -21 49 -18 56 6 17 -35 54 -66 59 -27 4 -64 -27 -53 -45 3 -6 1 -7 -5 -3
-17 10 -6 111 15 140 22 31 31 32 43 4z m566 -53 c-3 -8 -1 -15 5 -15 6 0 6
-6 0 -18 -5 -10 -7 -37 -4 -60 5 -36 3 -41 -10 -36 -9 3 -14 11 -11 19 3 7 -1
27 -8 45 -12 30 -12 35 7 56 23 27 29 30 21 9z"/>
<path d="M1530 4364 c-89 -38 -147 -117 -135 -180 7 -37 24 -50 75 -57 38 -4
69 8 142 57 136 90 66 244 -82 180z"/>
<path d="M1972 4048 c-7 -7 -12 -25 -12 -41 0 -25 3 -27 23 -22 24 8 67 44 67
56 0 5 -7 6 -15 3 -8 -4 -15 -1 -15 5 0 15 -33 14 -48 -1z"/>
<path d="M10080 80 l0 -80 80 0 80 0 0 80 0 80 -80 0 -80 0 0 -80z"/>
</g>
</svg>
